<svg xmlns="http://www.w3.org/2000/svg" viewBox="0 0 764 532.97"><defs><style>.cls-1,.cls-2{fill:#0054a6;}.cls-2{stroke:#0054a6;stroke-miterlimit:10;stroke-width:4.07px;}.cls-3{fill:#0154a6;}.cls-4{fill:#004884;}.cls-5{fill:#ffc926;}.cls-6{fill:#e8ac18;}.cls-7{fill:#c68c0a;}</style></defs><title>liv-kaus-lv</title><g id="Outfit_LV" data-name="Outfit LV"><path class="cls-1" d="M479.52,640.79v21h9.8l1.18-5.61h8.73v15.76h-36.4v-9l4.48-1.18v-21l-4.48-1.18v-9h21.71v9Z" transform="translate(-258 -199.92)"/><path class="cls-1" d="M520.88,640.79v21l4.48,1.18v9H504.24v-9l4.49-1.18v-21l-4.49-1.18v-9h21.12v9Z" transform="translate(-258 -199.92)"/><path class="cls-1" d="M570.14,640.79l-10,31.1H543.89l-9.44-31.1-3.89-1.18v-9h20.88v9l-2.89,1.18,5.43,18,5.19-18-2.77-1.18v-9h17.76v9Z" transform="translate(-258 -199.92)"/><path class="cls-1" d="M608.79,668.2c-1.5,1.24-3,2.47-4.49,3.69H587.43l-8.91-7.38V637.78l8.62-7.19h17.52l8.61,7.19v26.73C611.78,665.73,610.28,667,608.79,668.2Zm-16.52-27.47L590.68,642v18.4l1.65,1.36h7.14l1.65-1.36V642l-1.59-1.25Z" transform="translate(-258 -199.92)"/><path class="cls-1" d="M663.3,630.59v9l-4.48,1.18v31.1H646.9l-13.63-23v12.86l4.49,1.18v9h-19.3v-9l4.49-1.18v-21l-4.49-1.18v-9h17.7l12.28,22.06V640.79L644,639.61v-9Z" transform="translate(-258 -199.92)"/><path class="cls-1" d="M685,640.79v21l4.48,1.18v9H668.32v-9l4.48-1.18v-21l-4.48-1.18v-9h21.12v9Z" transform="translate(-258 -199.92)"/><path class="cls-1" d="M730.09,640.79V664l-9.5,7.91H704.54l-8.37-7v-7.49h11l1.18,4.31h7.79l1.77-1.42V640.73l-6.2-1.12v-9h22.84v9Z" transform="translate(-258 -199.92)"/><path class="cls-1" d="M779.36,663v8.91h-21v-9l3.13-1.18-1.06-3.66h-8.91l-1,3.66,2.89,1.18v9h-17.7v-9l4.54-1.18,6-21-3.84-1.18v-9h23.84l8,31.2Zm-26.08-12h5.25l-2.65-9.26Z" transform="translate(-258 -199.92)"/><path class="cls-1" d="M816.88,645h-11l-1.18-4.31h-8.2l-1.54,1.19v2.42l1.3,1,14.22,2.37,6.9,5.38v11.82l-8.43,7H791.16l-8.38-7v-7.49h11l1.18,4.31h8.62l1.47-1.24v-2.77l-1.12-1-14.16-2.36-7-5.78V637.31l8-6.72h18.06l8,6.68Z" transform="translate(-258 -199.92)"/><path class="cls-1" d="M529.77,701.79l-6.67,5.55,8.21,15.4,4.18,1.18v9H515.85v-9l2.95-1.18-4.6-8.26-4.72,3.95v4.31l2.95,1.18v9H492.37v-9l4.48-1.18v-21l-4.48-1.18v-9h19.94v9l-2.83,1.18v8l9.2-8-2.89-1.18v-9h19.7v9Z" transform="translate(-258 -199.92)"/><path class="cls-1" d="M581.81,724v8.91H560.86v-9l3.13-1.18-1.06-3.66H554l-1,3.66,2.89,1.18v9h-17.7v-9l4.54-1.18,6-21-3.84-1.18v-9h23.84l8,31.2Zm-26.08-12H561l-2.65-9.26Z" transform="translate(-258 -199.92)"/><path class="cls-1" d="M621.75,701.79v24.67L614,732.89H595.44l-7.79-6.43V701.79l-4.48-1.18v-9h19.41v9l-2.72,1.18v19.59l1.6,1.36h6.84l1.53-1.36V701.79l-2.65-1.18v-9h19.06v9Z" transform="translate(-258 -199.92)"/><path class="cls-1" d="M663.82,706h-11l-1.18-4.31h-8.2l-1.54,1.19v2.42l1.3,1,14.22,2.37,6.9,5.38v11.82l-8.44,7H638.1l-8.38-7v-7.49h11l1.18,4.31h8.61L652,721.5v-2.77l-1.12-1-14.16-2.36-7-5.78V698.31l8-6.72H655.8l8,6.68Z" transform="translate(-258 -199.92)"/><path class="cls-1" d="M703.17,706h-11L691,701.73h-8.2l-1.54,1.19v2.42l1.3,1,14.22,2.37,6.9,5.38v11.82l-8.43,7H677.45l-8.38-7v-7.49h11l1.18,4.31h8.62l1.47-1.24v-2.77l-1.12-1-14.16-2.36-7-5.78V698.31l8-6.72h18.06l8,6.68Z" transform="translate(-258 -199.92)"/><path class="cls-1" d="M756,711.12l-6.65,7.72,6,6.94,3.13.83v6.28H742.88v-6.28l2.36-.83-3.72-4.62-3.43,4.62,2,.83v6.28H729.46v-6.28l2.19-.83,6.9-8L733,711.12l-3.38-.83V704h15.24v6.31l-2.23.83,3.63,4.38,3.26-4.38-1.77-.83V704h10.49v6.31Z" transform="translate(-258 -199.92)"/><path class="cls-1" d="M763.33,732.89V724l5.66-1.19V702.44l-4.72,1.36-2.48-8.5,13.34-3.71h6.07v31.15l5.67,1.24v8.91Z" transform="translate(-258 -199.92)"/></g><g id="Layer_7" data-name="Layer 7"><line class="cls-2" y1="410.58" x2="764" y2="410.58"/></g><g id="Gold"><g id="_3016f398-2104-42bc-8a02-4f7cb528a22f" data-name="3016f398-2104-42bc-8a02-4f7cb528a22f"><g id="c494f4f1-0d7a-433d-8697-816b6d1fd84c"><rect class="cls-3" x="296.49" y="312.45" width="168.07" height="74.5"/><rect class="cls-4" x="284.97" y="386.95" width="192.73" height="12.13"/><path class="cls-5" d="M751.23,222.59c.35-7.28.55-14.82.55-22.67H526.92c0,7.84.19,15.38.54,22.67H465.21l.65,11a174.32,174.32,0,0,0,16.47,58.86,152.06,152.06,0,0,0,94.24,81.83c25,30,50,37,50,37,0,65-72,101.07-72,101.07H724.19s-72.05-36.1-72.05-101.07c0,0,25-7,50-37a152,152,0,0,0,94.24-81.83,174.11,174.11,0,0,0,16.48-58.86l.65-11ZM501.43,284.2a163.38,163.38,0,0,1-13.28-40.82H529c4.23,43.22,14.63,75.62,27.15,99.78A130,130,0,0,1,501.43,284.2Zm275.82,0a130,130,0,0,1-54.68,59c12.52-24.16,22.92-56.56,27.15-99.78h40.82A163.81,163.81,0,0,1,777.25,284.2Z" transform="translate(-258 -199.92)"/><path class="cls-6" d="M630.15,411S629,477.72,573.84,512.37h23.08S633.33,477.71,633.33,411Z" transform="translate(-258 -199.92)"/><path class="cls-6" d="M555.65,199.92s-3.47,167.5,69,207.63c0,0-54.13-41-47.36-207.63Z" transform="translate(-258 -199.92)"/><rect class="cls-4" x="315.84" y="335.26" width="11.98" height="60.35"/><circle class="cls-5" cx="380.53" cy="349.7" r="25.95"/><path class="cls-7" d="M643.66,534.69v32.19H636.3V542.46L630.6,544l-1.8-6.3,8.43-3Z" transform="translate(-258 -199.92)"/></g></g></g></svg>