<svg xmlns="http://www.w3.org/2000/svg" viewBox="0 0 764 532.97"><defs><style>.cls-1,.cls-2{fill:#0054a6;}.cls-2{stroke:#0054a6;stroke-miterlimit:10;stroke-width:4.07px;}.cls-3{fill:#0154a6;}.cls-4{fill:#004884;}.cls-5{fill:#ffc926;}.cls-6{fill:#e8ac18;}.cls-7{fill:#c68c0a;}</style></defs><title>latv-cemp-lv</title><g id="Outfit_LV" data-name="Outfit LV"><path class="cls-1" d="M494.18,640.79v21H504l1.18-5.61h8.73v15.76h-36.4v-9l4.48-1.18v-21l-4.48-1.18v-9H499.2v9Z" transform="translate(-258 -199.92)"/><path class="cls-1" d="M561.09,663v8.91h-21v-9l3.13-1.18-1.06-3.66H533.3l-1,3.66,2.89,1.18v9h-17.7v-9l4.54-1.18,6-21-3.84-1.18v-9h23.84l8,31.2ZM535,651h5.25l-2.65-9.26Z" transform="translate(-258 -199.92)"/><path class="cls-1" d="M592.71,647.64l-1.18-7.5H587v21.6l5.07,1.24v8.91h-22.3V663l5-1.19V640.14h-4.55l-1.18,7.5h-8.73v-17h41.06v17Z" transform="translate(-258 -199.92)"/><path class="cls-1" d="M644.57,640.79l-10,31.1H618.32l-9.44-31.1-3.9-1.18v-9h20.89v9L623,640.79l5.43,18,5.19-18-2.78-1.18v-9h17.76v9Z" transform="translate(-258 -199.92)"/><path class="cls-1" d="M670.3,640.79v21l4.48,1.18v9H653.66v-9l4.48-1.18v-21l-4.48-1.18v-9h21.12v9Z" transform="translate(-258 -199.92)"/><path class="cls-1" d="M715.43,640.79V664l-9.5,7.91h-16l-8.38-7v-7.49h11l1.18,4.31h7.79l1.77-1.42V640.73l-6.2-1.12v-9h22.84v9Z" transform="translate(-258 -199.92)"/><path class="cls-1" d="M764.7,663v8.91h-21v-9l3.13-1.18-1.06-3.66h-8.91l-1,3.66,2.89,1.18v9h-17.7v-9l4.55-1.18,6-21-3.84-1.18v-9h23.84l8,31.2Zm-26.08-12h5.25l-2.66-9.26Z" transform="translate(-258 -199.92)"/><path class="cls-1" d="M802.22,645h-11L790,640.73H781.8l-1.53,1.19v2.42l1.3,1,14.22,2.37,6.9,5.38v11.82l-8.44,7H776.5l-8.38-7v-7.49h11l1.18,4.31h8.61l1.48-1.24v-2.77l-1.12-1-14.16-2.36-7-5.78V637.31l8-6.72H794.2l8,6.68Z" transform="translate(-258 -199.92)"/><path class="cls-1" d="M466.41,706h-11l-1.18-4.31h-8.14l-1.71,1.36v18.23l1.77,1.42h8.08l1.18-4.31h11v7.49q-2.07,1.77-4.19,3.51c-1.42,1.16-2.81,2.32-4.19,3.46H441.69l-9.5-7.91V699.2l9.14-7.61h17.05l8,6.68Zm-19.77-18.58-8.43-8.91h7.55L449.3,684l3.66-5.42h7.55l-8.5,8.91Z" transform="translate(-258 -199.92)"/><path class="cls-1" d="M499.45,706l-1.18-4.31h-9.92v6.73h9.92v7.08h-9.92v7.2h9.92l1.18-4.31h8.73v14.46H471.72v-9l4.48-1.18v-21l-4.48-1.18v-9h36.4V706Z" transform="translate(-258 -199.92)"/><path class="cls-1" d="M560.39,701.79v21l4.37,1.18v9H543.11V724l5.66-1.19V708.64l-7.43,12.68h-4.61l-7.43-12.68v14.1L535,724v8.91H513.31v-9l4.49-1.18v-21l-4.49-1.18v-9h19.35l7,12.68,7.08-12.68h18v9Z" transform="translate(-258 -199.92)"/><path class="cls-1" d="M609,711.53l-8.56,7.14H586.77v4.13l4.48,1.18v8.91H570.07v-9l4.48-1.18v-21l-4.48-1.18v-9h30.32l8.56,7.19Zm-22.18-9.8v6.79h8.43l1.54-1.32V703l-1.54-1.27Z" transform="translate(-258 -199.92)"/><path class="cls-1" d="M631.25,701.79v21l4.48,1.18v9H614.61v-9l4.49-1.18v-21l-4.49-1.18v-9h21.12v9Z" transform="translate(-258 -199.92)"/><path class="cls-1" d="M672.73,729.2c-1.5,1.24-3,2.47-4.49,3.69H651.37l-8.91-7.38V698.78l8.61-7.19H668.6l8.61,7.19v26.73C675.72,726.73,674.22,728,672.73,729.2Zm-16.52-27.47-1.6,1.25v18.4l1.66,1.36h7.14l1.65-1.36V703l-1.6-1.25Z" transform="translate(-258 -199.92)"/><path class="cls-1" d="M727.24,691.59v9l-4.48,1.18v31.1H710.84l-13.63-23v12.86l4.49,1.18v9H682.4v-9l4.49-1.18v-21l-4.49-1.18v-9h17.7l12.28,22.06V701.79l-4.49-1.18v-9Z" transform="translate(-258 -199.92)"/><path class="cls-1" d="M748.9,701.79v21l4.48,1.18v9H732.26v-9l4.48-1.18v-21l-4.48-1.18v-9h21.12v9Z" transform="translate(-258 -199.92)"/><path class="cls-1" d="M807.42,711.12l-6.65,7.72,6,6.94,3.14.83v6.28H794.33v-6.28l2.35-.83L793,721.16l-3.43,4.62,2,.83v6.28H780.91v-6.28l2.19-.83,6.89-8-5.53-6.65-3.39-.83V704h15.24v6.31l-2.23.83,3.64,4.38,3.26-4.38-1.78-.83V704h10.49v6.31Z" transform="translate(-258 -199.92)"/><path class="cls-1" d="M847.34,706h-11l-1.18-4.31h-8.2l-1.54,1.19v5.54h15.52l6.9,5.37v12.09l-8.43,7H821.62l-8.38-7V698.31l8-6.72h18.06l8,6.68Zm-22,15.46,1.54,1.24h7.14l1.47-1.24v-4.43l-1.12-1h-9Z" transform="translate(-258 -199.92)"/></g><g id="Layer_7" data-name="Layer 7"><line class="cls-2" y1="410.58" x2="764" y2="410.58"/></g><g id="Gold"><g id="_3016f398-2104-42bc-8a02-4f7cb528a22f" data-name="3016f398-2104-42bc-8a02-4f7cb528a22f"><g id="c494f4f1-0d7a-433d-8697-816b6d1fd84c"><rect class="cls-3" x="296.49" y="312.45" width="168.07" height="74.5"/><rect class="cls-4" x="284.97" y="386.95" width="192.73" height="12.13"/><path class="cls-5" d="M751.23,222.59c.35-7.28.55-14.82.55-22.67H526.92c0,7.84.19,15.38.54,22.67H465.21l.65,11a174.32,174.32,0,0,0,16.47,58.86,152.06,152.06,0,0,0,94.24,81.83c25,30,50,37,50,37,0,65-72,101.07-72,101.07H724.19s-72.05-36.1-72.05-101.07c0,0,25-7,50-37a152,152,0,0,0,94.24-81.83,174.11,174.11,0,0,0,16.48-58.86l.65-11ZM501.43,284.2a163.38,163.38,0,0,1-13.28-40.82H529c4.23,43.22,14.63,75.62,27.15,99.78A130,130,0,0,1,501.43,284.2Zm275.82,0a130,130,0,0,1-54.68,59c12.52-24.16,22.92-56.56,27.15-99.78h40.82A163.81,163.81,0,0,1,777.25,284.2Z" transform="translate(-258 -199.92)"/><path class="cls-6" d="M630.15,411S629,477.72,573.84,512.37h23.08S633.33,477.71,633.33,411Z" transform="translate(-258 -199.92)"/><path class="cls-6" d="M555.65,199.92s-3.47,167.5,69,207.63c0,0-54.13-41-47.36-207.63Z" transform="translate(-258 -199.92)"/><rect class="cls-4" x="315.84" y="335.26" width="11.98" height="60.35"/><circle class="cls-5" cx="380.53" cy="349.7" r="25.95"/><path class="cls-7" d="M643.66,534.69v32.19H636.3V542.46L630.6,544l-1.8-6.3,8.43-3Z" transform="translate(-258 -199.92)"/></g></g></g></svg>