<svg xmlns="http://www.w3.org/2000/svg" viewBox="0 0 764 532.97"><defs><style>.cls-1,.cls-2{fill:#0054a6;}.cls-2{stroke:#0054a6;stroke-miterlimit:10;stroke-width:4.07px;}.cls-3{fill:#0154a6;}.cls-4{fill:#004884;}.cls-5{fill:#ffc926;}.cls-6{fill:#e8ac18;}.cls-7{fill:#c68c0a;}</style></defs><title>latv-kaus-lv</title><g id="Outfit_LV" data-name="Outfit LV"><path class="cls-1" d="M494.18,640.79v21H504l1.18-5.61h8.73v15.76h-36.4v-9l4.48-1.18v-21l-4.48-1.18v-9H499.2v9Z" transform="translate(-258 -199.92)"/><path class="cls-1" d="M561.09,663v8.91h-21v-9l3.13-1.18-1.06-3.66H533.3l-1,3.66,2.89,1.18v9h-17.7v-9l4.54-1.18,6-21-3.84-1.18v-9h23.84l8,31.2ZM535,651h5.25l-2.65-9.26Z" transform="translate(-258 -199.92)"/><path class="cls-1" d="M592.71,647.64l-1.18-7.5H587v21.6l5.07,1.24v8.91h-22.3V663l5-1.19V640.14h-4.55l-1.18,7.5h-8.73v-17h41.06v17Z" transform="translate(-258 -199.92)"/><path class="cls-1" d="M644.57,640.79l-10,31.1H618.32l-9.44-31.1-3.9-1.18v-9h20.89v9L623,640.79l5.43,18,5.19-18-2.78-1.18v-9h17.76v9Z" transform="translate(-258 -199.92)"/><path class="cls-1" d="M670.3,640.79v21l4.48,1.18v9H653.66v-9l4.48-1.18v-21l-4.48-1.18v-9h21.12v9Z" transform="translate(-258 -199.92)"/><path class="cls-1" d="M715.43,640.79V664l-9.5,7.91h-16l-8.38-7v-7.49h11l1.18,4.31h7.79l1.77-1.42V640.73l-6.2-1.12v-9h22.84v9Z" transform="translate(-258 -199.92)"/><path class="cls-1" d="M764.7,663v8.91h-21v-9l3.13-1.18-1.06-3.66h-8.91l-1,3.66,2.89,1.18v9h-17.7v-9l4.55-1.18,6-21-3.84-1.18v-9h23.84l8,31.2Zm-26.08-12h5.25l-2.66-9.26Z" transform="translate(-258 -199.92)"/><path class="cls-1" d="M802.22,645h-11L790,640.73H781.8l-1.53,1.19v2.42l1.3,1,14.22,2.37,6.9,5.38v11.82l-8.44,7H776.5l-8.38-7v-7.49h11l1.18,4.31h8.61l1.48-1.24v-2.77l-1.12-1-14.16-2.36-7-5.78V637.31l8-6.72H794.2l8,6.68Z" transform="translate(-258 -199.92)"/><path class="cls-1" d="M527.15,701.79l-6.67,5.55,8.2,15.4,4.19,1.18v9H513.22v-9l2.95-1.18-4.6-8.26-4.72,3.95v4.31l2.95,1.18v9H489.74v-9l4.48-1.18v-21l-4.48-1.18v-9h19.94v9l-2.83,1.18v8l9.2-8-2.89-1.18v-9h19.71v9Z" transform="translate(-258 -199.92)"/><path class="cls-1" d="M579.18,724v8.91H558.24v-9l3.13-1.18-1.07-3.66h-8.91l-1,3.66,2.89,1.18v9h-17.7v-9l4.55-1.18,6-21-3.83-1.18v-9h23.83l8,31.2Zm-26.07-12h5.25l-2.66-9.26Z" transform="translate(-258 -199.92)"/><path class="cls-1" d="M619.13,701.79v24.67l-7.73,6.43H592.81L585,726.46V701.79l-4.48-1.18v-9H600v9l-2.71,1.18v19.59l1.59,1.36h6.84l1.54-1.36V701.79l-2.66-1.18v-9h19.06v9Z" transform="translate(-258 -199.92)"/><path class="cls-1" d="M661.19,706h-11L649,701.73h-8.2l-1.53,1.19v2.42l1.29,1,14.22,2.37,6.91,5.38v11.82l-8.44,7H635.47l-8.38-7v-7.49h11l1.19,4.31h8.61l1.47-1.24v-2.77l-1.12-1-14.16-2.36-7-5.78V698.31l8-6.72h18l8,6.68Z" transform="translate(-258 -199.92)"/><path class="cls-1" d="M700.55,706h-11l-1.18-4.31h-8.2l-1.53,1.19v2.42l1.3,1,14.22,2.37,6.9,5.38v11.82l-8.44,7H674.82l-8.38-7v-7.49h11l1.18,4.31h8.61l1.48-1.24v-2.77l-1.13-1-14.16-2.36-7-5.78V698.31l8-6.72h18l8,6.68Z" transform="translate(-258 -199.92)"/><path class="cls-1" d="M753.35,711.12l-6.65,7.72,6,6.94,3.14.83v6.28H740.26v-6.28l2.35-.83-3.72-4.62-3.42,4.62,2,.83v6.28H726.83v-6.28l2.19-.83,6.9-8-5.53-6.65-3.39-.83V704h15.24v6.31l-2.23.83,3.63,4.38,3.27-4.38-1.78-.83V704h10.49v6.31Z" transform="translate(-258 -199.92)"/><path class="cls-1" d="M777.22,732.89H764.06l14.69-31.16H770.2L769,706H758V691.59h33v10.5Z" transform="translate(-258 -199.92)"/></g><g id="Layer_7" data-name="Layer 7"><line class="cls-2" y1="410.58" x2="764" y2="410.58"/></g><g id="Gold"><g id="_3016f398-2104-42bc-8a02-4f7cb528a22f" data-name="3016f398-2104-42bc-8a02-4f7cb528a22f"><g id="c494f4f1-0d7a-433d-8697-816b6d1fd84c"><rect class="cls-3" x="296.49" y="312.45" width="168.07" height="74.5"/><rect class="cls-4" x="284.97" y="386.95" width="192.73" height="12.13"/><path class="cls-5" d="M751.23,222.59c.35-7.28.55-14.82.55-22.67H526.92c0,7.84.19,15.38.54,22.67H465.21l.65,11a174.32,174.32,0,0,0,16.47,58.86,152.06,152.06,0,0,0,94.24,81.83c25,30,50,37,50,37,0,65-72,101.07-72,101.07H724.19s-72.05-36.1-72.05-101.07c0,0,25-7,50-37a152,152,0,0,0,94.24-81.83,174.11,174.11,0,0,0,16.48-58.86l.65-11ZM501.43,284.2a163.38,163.38,0,0,1-13.28-40.82H529c4.23,43.22,14.63,75.62,27.15,99.78A130,130,0,0,1,501.43,284.2Zm275.82,0a130,130,0,0,1-54.68,59c12.52-24.16,22.92-56.56,27.15-99.78h40.82A163.81,163.81,0,0,1,777.25,284.2Z" transform="translate(-258 -199.92)"/><path class="cls-6" d="M630.15,411S629,477.72,573.84,512.37h23.08S633.33,477.71,633.33,411Z" transform="translate(-258 -199.92)"/><path class="cls-6" d="M555.65,199.92s-3.47,167.5,69,207.63c0,0-54.13-41-47.36-207.63Z" transform="translate(-258 -199.92)"/><rect class="cls-4" x="315.84" y="335.26" width="11.98" height="60.35"/><circle class="cls-5" cx="380.53" cy="349.7" r="25.95"/><path class="cls-7" d="M643.66,534.69v32.19H636.3V542.46L630.6,544l-1.8-6.3,8.43-3Z" transform="translate(-258 -199.92)"/></g></g></g></svg>