<svg xmlns="http://www.w3.org/2000/svg" viewBox="0 0 764 538.79"><defs><style>.cls-1,.cls-2{fill:#0054a6;}.cls-2{stroke:#0054a6;stroke-miterlimit:10;stroke-width:4.07px;}.cls-3{fill:#0154a6;}.cls-4{fill:#004884;}.cls-5{fill:#e8e7e6;}.cls-6{fill:#d1d1d1;}.cls-7{fill:#a5a5a5;}</style></defs><title>sadr-kaus-lv</title><g id="Outfit_LV" data-name="Outfit LV"><path class="cls-1" d="M304.29,645h-11l-1.18-4.31h-8.2l-1.53,1.19v2.42l1.29,1,14.22,2.37,6.91,5.38v11.82l-8.44,7H278.57l-8.38-7v-7.49h11l1.18,4.31H291l1.47-1.24v-2.77l-1.12-1-14.16-2.36-7-5.78V637.31l8-6.72h18l8,6.68Z" transform="translate(-258 -200)"/><path class="cls-1" d="M352.67,663v8.91H331.73v-9l3.12-1.18-1.06-3.66h-8.91l-1,3.66,2.89,1.18v9h-17.7v-9l4.54-1.18,6-21-3.83-1.18v-9h23.83l8,31.2Zm-26.08-12h5.26l-2.66-9.26Z" transform="translate(-258 -200)"/><path class="cls-1" d="M384.71,671.89H356.33v-9l4.48-1.18v-21l-4.48-1.18v-9H385l10.33,8.55V663ZM373,661.74h7.49l2.6-2.13V642.8l-2.48-2.07H373Z" transform="translate(-258 -200)"/><path class="cls-1" d="M400.52,671.89v-9l4.48-1.18v-21l-4.48-1.18v-9H431.2l8,6.72v12.33l-5.85,5,4.49,7.14,3.13.59v9.56H429.73l-9.44-16.11h-3.07v6l4.48,1.18v9Zm16.7-24.37h8.38l1.41-1.19v-4.41l-1.41-1.19h-8.38Z" transform="translate(-258 -200)"/><path class="cls-1" d="M486.42,663v8.91H465.48v-9l3.13-1.18-1.07-3.66h-8.9l-1,3.66,2.89,1.18v9h-17.7v-9l4.55-1.18,6-21-3.83-1.18v-9h23.84l8,31.2Zm-26.07-12h5.25l-2.66-9.26Z" transform="translate(-258 -200)"/><path class="cls-1" d="M526.37,640.79v24.67l-7.73,6.43H500.05l-7.78-6.43V640.79l-4.49-1.18v-9h19.41v9l-2.71,1.18v19.59l1.59,1.36h6.85l1.53-1.36V640.79l-2.65-1.18v-9h19.05v9Z" transform="translate(-258 -200)"/><path class="cls-1" d="M563,671.89H534.57v-9l4.48-1.18v-21l-4.48-1.18v-9h28.67l10.33,8.55V663Zm-11.68-10.15h7.49l2.59-2.13V642.8l-2.47-2.07h-7.61Z" transform="translate(-258 -200)"/><path class="cls-1" d="M594.34,661.74H603l1.18-5.61h8.73v15.76h-35.4v-8.26l18.29-22.9h-8.32l-1.18,5.61h-8.73V630.59h35.11V639Z" transform="translate(-258 -200)"/><path class="cls-1" d="M635,640.79v21l4.48,1.18v9H618.35v-9l4.48-1.18v-21l-4.48-1.18v-9h21.12v9Zm2.89-16.1H620.06v-5.14h17.82Z" transform="translate(-258 -200)"/><path class="cls-1" d="M680.65,650.41l4.13,3.42v11.09l-8.38,7H646.2v-9l4.48-1.18v-21l-4.48-1.18v-9h30.32l8,6.72v9.91Zm-17.76-3.36h8.2l1.42-1.19v-3.94l-1.42-1.19h-8.2Zm0,14.69h8.2l1.54-1.24v-5.08l-1.42-1.17h-8.32Z" transform="translate(-258 -200)"/><path class="cls-1" d="M732.81,663v8.91H711.86v-9l3.13-1.18-1.06-3.66H705l-1,3.66,2.9,1.18v9h-17.7v-9l4.54-1.18,6-21-3.84-1.18v-9h23.84l8,31.2Zm-26.08-12H712l-2.66-9.26Z" transform="translate(-258 -200)"/><path class="cls-1" d="M770.33,645h-11l-1.18-4.31h-8.2l-1.54,1.19v2.42l1.3,1,14.22,2.37,6.9,5.38v11.82l-8.43,7H744.61l-8.38-7v-7.49h11l1.18,4.31h8.61l1.48-1.24v-2.77l-1.12-1-14.16-2.36-7-5.78V637.31l8-6.72h18.06l8,6.68Z" transform="translate(-258 -200)"/><path class="cls-1" d="M835.88,640.79l-6.67,5.55,8.2,15.4,4.19,1.18v9H822v-9l2.95-1.18-4.6-8.26-4.72,3.95v4.31l2.95,1.18v9H798.47v-9l4.49-1.18v-21l-4.49-1.18v-9h19.94v9l-2.83,1.18v8l9.21-8-2.9-1.18v-9H841.6v9Z" transform="translate(-258 -200)"/><path class="cls-1" d="M887.92,663v8.91H867v-9l3.13-1.18L869,658.08h-8.91l-1,3.66,2.89,1.18v9h-17.7v-9l4.55-1.18,6-21L851,639.61v-9h23.84l8,31.2Zm-26.08-12h5.25l-2.66-9.26Z" transform="translate(-258 -200)"/><path class="cls-1" d="M927.86,640.79v24.67l-7.73,6.43H901.54l-7.78-6.43V640.79l-4.49-1.18v-9h19.41v9L906,640.79v19.59l1.59,1.36h6.85l1.53-1.36V640.79l-2.65-1.18v-9h19.05v9Z" transform="translate(-258 -200)"/><path class="cls-1" d="M969.93,645h-11l-1.18-4.31h-8.2L948,641.92v2.42l1.3,1,14.22,2.37,6.9,5.38v11.82l-8.44,7H944.2l-8.38-7v-7.49h11l1.18,4.31h8.61l1.48-1.24v-2.77l-1.13-1-14.16-2.36-7-5.78V637.31l8-6.72h18l8,6.68Z" transform="translate(-258 -200)"/><path class="cls-1" d="M1009.28,645h-11l-1.18-4.31h-8.21l-1.53,1.19v2.42l1.3,1,14.22,2.37,6.9,5.38v11.82l-8.44,7H983.55l-8.37-7v-7.49h11l1.18,4.31H996l1.48-1.24v-2.77l-1.12-1-14.16-2.36-7-5.78V637.31l8-6.72h18l8,6.68Z" transform="translate(-258 -200)"/><path class="cls-1" d="M346.52,728.4,353,738.79H346.7l-6.49-10.45V696.25l6.49-10.56h6.61l-6.79,11Z" transform="translate(-258 -200)"/><path class="cls-1" d="M396.55,701.79l-10,31.1H370.3l-9.44-31.1-3.9-1.18v-9h20.89v9L375,701.79l5.43,18,5.19-18-2.77-1.18v-9h17.75v9Z" transform="translate(-258 -200)"/><path class="cls-1" d="M422.28,701.79v21l4.48,1.18v9H405.64v-9l4.48-1.18v-21l-4.48-1.18v-9h21.12v9Z" transform="translate(-258 -200)"/><path class="cls-1" d="M467.71,706h-11l-1.18-4.31h-8.14l-1.71,1.36v18.23l1.77,1.42h8.08l1.18-4.31h11v7.49q-2.07,1.77-4.19,3.51c-1.42,1.16-2.82,2.32-4.19,3.46H443L433.49,725V699.2l9.14-7.61h17.05l8,6.68Z" transform="translate(-258 -200)"/><path class="cls-1" d="M500.75,706l-1.18-4.31h-9.92v6.73h9.92v7.08h-9.92v7.2h9.92l1.18-4.31h8.73v14.46H473v-9l4.48-1.18v-21L473,700.61v-9h36.4V706Z" transform="translate(-258 -200)"/><path class="cls-1" d="M548.83,706h-11l-1.18-4.31h-8.15l-1.71,1.36v18.23l1.77,1.42h8.09l1.18-4.31h11v7.49c-1.38,1.18-2.77,2.35-4.19,3.51s-2.81,2.32-4.19,3.46H524.11l-9.5-7.91V699.2l9.14-7.61h17.06l8,6.68Zm-19.77-18.58-8.43-8.91h7.55l3.54,5.42,3.66-5.42h7.55l-8.5,8.91Z" transform="translate(-258 -200)"/><path class="cls-1" d="M581.87,706l-1.18-4.31h-9.91v6.73h9.91v7.08h-9.91v7.2h9.91l1.18-4.31h8.73v14.46H554.14v-9l4.48-1.18v-21l-4.48-1.18v-9h36.4V706Z" transform="translate(-258 -200)"/><path class="cls-1" d="M642.82,701.79v21l4.36,1.18v9H625.53V724l5.66-1.19V708.64l-7.43,12.68h-4.6l-7.44-12.68v14.1l5.67,1.24v8.91H595.73v-9l4.49-1.18v-21l-4.49-1.18v-9h19.36l7,12.68,7.08-12.68h18v9Z" transform="translate(-258 -200)"/><path class="cls-1" d="M691.37,711.53l-8.55,7.14H669.19v4.13l4.48,1.18v8.91H652.49v-9l4.49-1.18v-21l-4.49-1.18v-9h30.33l8.55,7.19Zm-22.18-9.8v6.79h8.44l1.53-1.32V703l-1.53-1.27Z" transform="translate(-258 -200)"/><path class="cls-1" d="M713.67,701.79v21l4.49,1.18v9H697v-9l4.48-1.18v-21L697,700.61v-9h21.12v9Z" transform="translate(-258 -200)"/><path class="cls-1" d="M755.15,729.2c-1.49,1.24-3,2.47-4.48,3.69H733.79l-8.91-7.38V698.78l8.62-7.19H751l8.61,7.19v26.73C758.14,726.73,756.64,728,755.15,729.2Zm-16.52-27.47L737,703v18.4l1.65,1.36h7.14l1.65-1.36V703l-1.59-1.25Z" transform="translate(-258 -200)"/><path class="cls-1" d="M809.67,691.59v9l-4.49,1.18v31.1H793.26l-13.63-23v12.86l4.49,1.18v9H764.83v-9l4.48-1.18v-21l-4.48-1.18v-9h17.7l12.27,22.06V701.79l-4.49-1.18v-9Z" transform="translate(-258 -200)"/><path class="cls-1" d="M831.32,701.79v21l4.48,1.18v9H814.68v-9l4.48-1.18v-21l-4.48-1.18v-9H835.8v9Z" transform="translate(-258 -200)"/><path class="cls-1" d="M855.63,728.34l-6.49,10.45h-6.26l6.43-10.39V696.66l-6.78-11h6.61l6.49,10.56Z" transform="translate(-258 -200)"/><path class="cls-1" d="M908.13,711.12l-6.64,7.72,6,6.94,3.14.83v6.28H895v-6.28l2.36-.83-3.72-4.62-3.43,4.62,2,.83v6.28H881.62v-6.28l2.19-.83,6.9-8-5.54-6.65-3.38-.83V704H897v6.31l-2.24.83,3.64,4.38,3.26-4.38-1.77-.83V704h10.49v6.31Z" transform="translate(-258 -200)"/><path class="cls-1" d="M915.49,732.89V724l5.66-1.19V702.44l-4.72,1.36L914,695.3l13.34-3.71h6.07v31.15L939,724v8.91Z" transform="translate(-258 -200)"/></g><g id="Layer_7" data-name="Layer 7"><line class="cls-2" y1="410.5" x2="764" y2="410.5"/></g><g id="Silver"><g id="_481d2672-3aa1-405a-a2ca-5e058f4684e7" data-name="481d2672-3aa1-405a-a2ca-5e058f4684e7"><g id="a2cf537c-4c90-4ddd-a987-0bd4d05c261d"><rect class="cls-3" x="299.21" y="312.22" width="167.95" height="74.45"/><rect class="cls-4" x="287.7" y="386.66" width="192.59" height="12.12"/><path class="cls-5" d="M753.8,222.65c.35-7.28.54-14.8.54-22.65H529.65c0,7.84.19,15.37.54,22.65H468l.65,11a174.09,174.09,0,0,0,16.46,58.82,151.93,151.93,0,0,0,94.17,81.77c24.94,30,49.94,37,49.94,37,0,64.93-72,101-72,101H726.78s-72-36.07-72-101c0,0,25-7,49.94-37a151.93,151.93,0,0,0,94.17-81.77,174.09,174.09,0,0,0,16.46-58.82l.65-11ZM504.18,284.22a163.68,163.68,0,0,1-13.27-40.79H531.7c4.22,43.18,14.61,75.56,27.13,99.7A129.87,129.87,0,0,1,504.18,284.22Zm275.62,0a129.9,129.9,0,0,1-54.64,58.91c12.51-24.14,22.9-56.52,27.13-99.7h40.78A163.27,163.27,0,0,1,779.8,284.22Z" transform="translate(-258 -200)"/><path class="cls-6" d="M632.81,410.93s-1.16,66.66-56.27,101.29H599.6S636,477.59,636,410.93Z" transform="translate(-258 -200)"/><path class="cls-6" d="M558.36,200s-3.46,167.37,69,207.47c0,0-54.09-41-47.32-207.47Z" transform="translate(-258 -200)"/><rect class="cls-4" x="318.54" y="335.01" width="11.97" height="60.31"/><circle class="cls-5" cx="383.18" cy="349.44" r="25.93"/><path class="cls-7" d="M630.89,560l10.32-10.71a8.79,8.79,0,0,0,3.11-5.44,3.06,3.06,0,0,0-2.84-3.26,2.26,2.26,0,0,0-.45,0,4.93,4.93,0,0,0-4.52,3.33l-5.92-3.46A11,11,0,0,1,641,533.77a9.79,9.79,0,0,1,10.39,9.15c0,.21,0,.42,0,.63a13.84,13.84,0,0,1-4.79,9.66l-5.09,5.14h10.31v6.76h-20.9Z" transform="translate(-258 -200)"/></g></g></g></svg>