<svg xmlns="http://www.w3.org/2000/svg" viewBox="0 0 764 532.97"><defs><style>.cls-1,.cls-2{fill:#0054a6;}.cls-2{stroke:#0054a6;stroke-miterlimit:10;stroke-width:4.07px;}.cls-3{fill:#0154a6;}.cls-4{fill:#004884;}.cls-5{fill:#ffc926;}.cls-6{fill:#e8ac18;}.cls-7{fill:#c68c0a;}</style></defs><title>europ-l-lv</title><g id="Outfit_LV" data-name="Outfit LV"><path class="cls-1" d="M420.82,645l-1.18-4.31h-9.91v6.73h9.91v7.08h-9.91v7.2h9.91l1.18-4.31h8.73v14.46H393.09v-9l4.48-1.18v-21l-4.48-1.18v-9h36.4V645Z" transform="translate(-258 -199.92)"/><path class="cls-1" d="M452.74,640.79v21l4.48,1.18v9H436.1v-9l4.48-1.18v-21l-4.48-1.18v-9h21.12v9Z" transform="translate(-258 -199.92)"/><path class="cls-1" d="M464,671.89v-9l4.48-1.18v-21L464,639.61v-9h30.68l8,6.72v12.33l-5.84,5,4.48,7.14,3.13.59v9.56H493.15l-9.44-16.11h-3.07v6l4.49,1.18v9Zm16.69-24.37H489l1.42-1.19v-4.41L489,640.73h-8.38Z" transform="translate(-258 -199.92)"/><path class="cls-1" d="M538.88,668.2c-1.5,1.24-3,2.47-4.49,3.69H517.52l-8.91-7.38V637.78l8.61-7.19h17.53l8.61,7.19v26.73Q541.11,666.34,538.88,668.2Zm-16.52-27.47-1.6,1.25v18.4l1.65,1.36h7.14l1.66-1.36V642l-1.6-1.25Z" transform="translate(-258 -199.92)"/><path class="cls-1" d="M587.43,650.53l-8.55,7.14H565.25v4.13l4.48,1.18v8.91H548.55v-9l4.49-1.18v-21l-4.49-1.18v-9h30.33l8.55,7.19Zm-22.18-9.8v6.79h8.44l1.53-1.32V642l-1.53-1.27Z" transform="translate(-258 -199.92)"/><path class="cls-1" d="M631.5,663v8.91H610.56v-9l3.13-1.18-1.07-3.66h-8.9l-1,3.66,2.89,1.18v9H587.9v-9l4.55-1.18,6-21-3.83-1.18v-9h23.84l8,31.2Zm-26.07-12h5.25L608,641.74Z" transform="translate(-258 -199.92)"/><path class="cls-1" d="M669,645H658l-1.18-4.31h-8.21l-1.53,1.19v2.42l1.3,1,14.22,2.37,6.9,5.38v11.82l-8.44,7H643.3l-8.37-7v-7.49h11l1.18,4.31h8.61l1.48-1.24v-2.77l-1.12-1L642,654.36l-7-5.78V637.31l8-6.72h18l8,6.68Z" transform="translate(-258 -199.92)"/><path class="cls-1" d="M713.87,640.79v21h9.79l1.18-5.61h8.73v15.76h-36.4v-9l4.48-1.18v-21l-4.48-1.18v-9h21.71v9Z" transform="translate(-258 -199.92)"/><path class="cls-1" d="M755.23,640.79v21l4.48,1.18v9H738.59v-9l4.48-1.18v-21l-4.48-1.18v-9h21.12v9Zm2.89-16.1H740.3v-5.14h17.82Z" transform="translate(-258 -199.92)"/><path class="cls-1" d="M790.21,645,789,640.73H780.3l-1.71,1.36v18.23l1.77,1.42h6.84L789,660.2v-5.66h-5.54v-7.08h17.7v24.43h-9.27l-1.18-3.25-3.89,3.25H775.93L766.44,664V638.2l9.14-7.61H793.1l8.09,6.68V645Z" transform="translate(-258 -199.92)"/><path class="cls-1" d="M849.09,663v8.91H828.15v-9l3.13-1.18-1.07-3.66H821.3l-1,3.66,2.89,1.18v9h-17.7v-9l4.55-1.18,6-21-3.83-1.18v-9h23.83l8,31.2ZM823,651h5.25l-2.66-9.26Z" transform="translate(-258 -199.92)"/><path class="cls-1" d="M886.62,645h-11l-1.18-4.31h-8.2l-1.53,1.19v2.42l1.3,1,14.22,2.37,6.9,5.38v11.82l-8.44,7H860.89l-8.37-7v-7.49h11l1.18,4.31h8.61l1.48-1.24v-2.77l-1.12-1-14.16-2.36-7-5.78V637.31l8-6.72h18.05l8,6.68Z" transform="translate(-258 -199.92)"/><path class="cls-1" d="M357.49,706l-1.18-4.31h-8.73l-1.71,1.36v18.23l1.77,1.42h6.84l1.83-1.54v-5.66h-5.54v-7.08h17.7v24.43H359.2L358,729.64l-3.89,3.25H343.22l-9.5-7.91V699.2l9.14-7.61h17.52l8.09,6.68V706Z" transform="translate(-258 -199.92)"/><path class="cls-1" d="M373.48,732.89v-9l4.49-1.18v-21l-4.49-1.18v-9h30.68l8,6.72v12.33l-5.84,5,4.48,7.14,3.13.59v9.56H402.69l-9.44-16.11h-3.07v6l4.48,1.18v9Zm16.7-24.37h8.38l1.41-1.19v-4.41l-1.41-1.19h-8.38Z" transform="translate(-258 -199.92)"/><path class="cls-1" d="M455.08,701.79v24.67l-7.73,6.43H428.76L421,726.46V701.79l-4.49-1.18v-9H435.9v9l-2.71,1.18v19.59l1.59,1.36h6.85l1.53-1.36V701.79l-2.65-1.18v-9h19.05v9Z" transform="translate(-258 -199.92)"/><path class="cls-1" d="M502.16,711.53l-8.55,7.14H480v4.13l4.48,1.18v8.91H463.28v-9l4.48-1.18v-21l-4.48-1.18v-9h30.33l8.55,7.19ZM480,701.73v6.79h8.43L490,707.2V703l-1.54-1.27Z" transform="translate(-258 -199.92)"/><path class="cls-1" d="M543.46,701.79v24.67l-7.73,6.43H517.15l-7.79-6.43V701.79l-4.49-1.18v-9h19.42v9l-2.72,1.18v19.59l1.59,1.36H530l1.53-1.36V701.79l-2.65-1.18v-9h19.05v9Z" transform="translate(-258 -199.92)"/><path class="cls-1" d="M605.11,708.64l-1.18-7.5h-4.54v21.6l5.08,1.24v8.91H582.16V724l5-1.19V701.14h-4.54l-1.18,7.5h-8.74v-17h41.07v17Z" transform="translate(-258 -199.92)"/><path class="cls-1" d="M654.38,701.79v24.67l-7.73,6.43H628.06l-7.78-6.43V701.79l-4.49-1.18v-9H635.2v9l-2.71,1.18v19.59l1.59,1.36h6.85l1.53-1.36V701.79l-2.65-1.18v-9h19.05v9Z" transform="translate(-258 -199.92)"/><path class="cls-1" d="M662.58,732.89v-9l4.48-1.18v-21l-4.48-1.18v-9h30.68l8,6.72v12.33l-5.84,5,4.49,7.14,3.12.59v9.56H691.78l-9.44-16.11h-3.06v6l4.48,1.18v9Zm16.7-24.37h8.37l1.42-1.19v-4.41l-1.42-1.19h-8.37Z" transform="translate(-258 -199.92)"/><path class="cls-1" d="M751.26,691.59v9l-4.49,1.18v31.1H734.85l-13.62-23v12.86l4.48,1.18v9H706.42v-9l4.48-1.18v-21l-4.48-1.18v-9h17.7l12.27,22.06V701.79l-4.49-1.18v-9Z" transform="translate(-258 -199.92)"/><path class="cls-1" d="M772.91,701.79v21l4.48,1.18v9H756.27v-9l4.48-1.18v-21l-4.48-1.18v-9h21.12v9Zm2.89-16.1H758v-5.14H775.8Z" transform="translate(-258 -199.92)"/><path class="cls-1" d="M784.12,732.89v-9l4.48-1.18v-21l-4.48-1.18v-9H814.8l8,6.72v12.33l-5.84,5,4.49,7.14,3.12.59v9.56H813.32l-9.44-16.11h-3.06v6l4.48,1.18v9Zm16.7-24.37h8.37l1.42-1.19v-4.41l-1.42-1.19h-8.37Z" transform="translate(-258 -199.92)"/><path class="cls-1" d="M861.82,706h-11l-1.18-4.31h-8.2l-1.54,1.19v2.42l1.3,1,14.22,2.37,6.9,5.38v11.82l-8.43,7H836.1l-8.38-7v-7.49h11l1.18,4.31h8.62L850,721.5v-2.77l-1.12-1-14.16-2.36-7-5.78V698.31l8-6.72H853.8l8,6.68Z" transform="translate(-258 -199.92)"/><path class="cls-1" d="M914.62,711.12,908,718.84l6,6.94,3.14.83v6.28H901.53v-6.28l2.36-.83-3.72-4.62-3.43,4.62,2,.83v6.28H888.11v-6.28l2.19-.83,6.9-8-5.54-6.65-3.38-.83V704h15.24v6.31l-2.23.83,3.63,4.38,3.26-4.38-1.77-.83V704H916.9v6.31Z" transform="translate(-258 -199.92)"/><path class="cls-1" d="M922,732.89V724l5.66-1.19V702.44l-4.72,1.36-2.48-8.5,13.34-3.71h6.07v31.15l5.67,1.24v8.91Z" transform="translate(-258 -199.92)"/></g><g id="Layer_7" data-name="Layer 7"><line class="cls-2" y1="410.58" x2="764" y2="410.58"/></g><g id="Gold"><g id="_3016f398-2104-42bc-8a02-4f7cb528a22f" data-name="3016f398-2104-42bc-8a02-4f7cb528a22f"><g id="c494f4f1-0d7a-433d-8697-816b6d1fd84c"><rect class="cls-3" x="296.49" y="312.45" width="168.07" height="74.5"/><rect class="cls-4" x="284.97" y="386.95" width="192.73" height="12.13"/><path class="cls-5" d="M751.23,222.59c.35-7.28.55-14.82.55-22.67H526.92c0,7.84.19,15.38.54,22.67H465.21l.65,11a174.32,174.32,0,0,0,16.47,58.86,152.06,152.06,0,0,0,94.24,81.83c25,30,50,37,50,37,0,65-72,101.07-72,101.07H724.19s-72.05-36.1-72.05-101.07c0,0,25-7,50-37a152,152,0,0,0,94.24-81.83,174.11,174.11,0,0,0,16.48-58.86l.65-11ZM501.43,284.2a163.38,163.38,0,0,1-13.28-40.82H529c4.23,43.22,14.63,75.62,27.15,99.78A130,130,0,0,1,501.43,284.2Zm275.82,0a130,130,0,0,1-54.68,59c12.52-24.16,22.92-56.56,27.15-99.78h40.82A163.81,163.81,0,0,1,777.25,284.2Z" transform="translate(-258 -199.92)"/><path class="cls-6" d="M630.15,411S629,477.72,573.84,512.37h23.08S633.33,477.71,633.33,411Z" transform="translate(-258 -199.92)"/><path class="cls-6" d="M555.65,199.92s-3.47,167.5,69,207.63c0,0-54.13-41-47.36-207.63Z" transform="translate(-258 -199.92)"/><rect class="cls-4" x="315.84" y="335.26" width="11.98" height="60.35"/><circle class="cls-5" cx="380.53" cy="349.7" r="25.95"/><path class="cls-7" d="M643.66,534.69v32.19H636.3V542.46L630.6,544l-1.8-6.3,8.43-3Z" transform="translate(-258 -199.92)"/></g></g></g></svg>